RobotoFlexCondensed-Thin.ufo
<glyph name="parenright" format="2">
  <advance width="555"/>
  <unicode hex="0029"/>
  <outline>
    <contour>
      <point x="13.544444444398337" y="-436.0" type="curve"/>
      <point x="13.544444444398337" y="-421.840849673265" type="line"/>
      <point x="241" y="-334"/>
      <point x="381" y="-113"/>
      <point x="381.0" y="508.0" type="curve" smooth="yes"/>
      <point x="381.0" y="532.0" type="line" smooth="yes"/>
      <point x="381" y="1108"/>
      <point x="241" y="1372"/>
      <point x="13.544444444398337" y="1460.4575163399318" type="curve"/>
      <point x="13.544444444398337" y="1476.0" type="line"/>
      <point x="279" y="1387"/>
      <point x="432" y="1063"/>
      <point x="431.74810457512" y="525.0" type="curve" smooth="yes"/>
      <point x="431.74810457512" y="515.0" type="line" smooth="yes"/>
      <point x="432" y="-77"/>
      <point x="279" y="-347"/>
    </contour>
  </outline>
</glyph>
<glyph name="five" format="2">
  <advance width="1141"/>
  <unicode hex="0035"/>
  <outline>
    <contour>
      <point x="148.8398692811" y="362.74869281044664" type="curve" smooth="yes"/>
      <point x="148.8398692811" y="376.8986928104467" type="line"/>
      <point x="199.61666666666667" y="376.8986928104467" type="line"/>
      <point x="199.61666666666667" y="366.8986928104467" type="line" smooth="yes"/>
      <point x="200" y="155"/>
      <point x="352" y="26"/>
      <point x="575.52810457512" y="26.430065359450012" type="curve" smooth="yes"/>
      <point x="798" y="26"/>
      <point x="932" y="187"/>
      <point x="932.1549019608251" y="465.0" type="curve" smooth="yes"/>
      <point x="932" y="715"/>
      <point x="798" y="848"/>
      <point x="575.6454248365633" y="848.16993464055" type="curve" smooth="yes"/>
      <point x="471" y="850"/>
      <point x="308" y="759"/>
      <point x="252.654901960825" y="678.1065359477667" type="curve"/>
      <point x="196.75261437910666" y="704.5846405228866" type="line"/>
      <point x="271.38594771244" y="1456.0" type="line"/>
      <point x="922.0882352941584" y="1456.0" type="line"/>
      <point x="922.0882352941584" y="1400.1372549019934" type="line"/>
      <point x="317.48006535945" y="1400.1372549019934" type="line"/>
      <point x="244.11339869278333" y="720.0604575162882" type="line"/>
      <point x="293" y="814"/>
      <point x="457" y="904"/>
      <point x="587.4735294118217" y="904.2166666666667" type="curve" smooth="yes"/>
      <point x="823" y="904"/>
      <point x="985" y="744"/>
      <point x="984.7816993463917" y="465.0" type="curve" smooth="yes"/>
      <point x="985" y="157"/>
      <point x="826" y="-30"/>
      <point x="575.52810457512" y="-30.0" type="curve" smooth="yes"/>
      <point x="373" y="-30"/>
      <point x="149" y="108"/>
    </contour>
  </outline>
</glyph>
<glyph name="semicolon" format="2">
  <advance width="453"/>
  <unicode hex="003B"/>
  <outline>
    <contour>
      <point x="170.28866666666664" y="-134.7346928104467" type="line"/>
      <point x="199" y="-83"/>
      <point x="212" y="-30"/>
      <point x="211.66202614378" y="43.42669281044667" type="curve" smooth="yes"/>
      <point x="211.66202614378" y="137.70139869278333" type="line"/>
      <point x="279.33543790845334" y="137.70139869278333" type="line"/>
      <point x="279.33543790845334" y="44.49335947711334" type="line" smooth="yes"/>
      <point x="279" y="-49"/>
      <point x="261" y="-110"/>
      <point x="219.46706535945" y="-165.17005228756" type="curve"/>
    </contour>
    <contour>
      <point x="176.0" y="989.7852941176633" type="curve" smooth="yes"/>
      <point x="176" y="1045"/>
      <point x="200" y="1068"/>
      <point x="227.16339869278335" y="1068.0" type="curve" smooth="yes"/>
      <point x="255" y="1068"/>
      <point x="277" y="1045"/>
      <point x="276.94346405223337" y="989.7852941176633" type="curve" smooth="yes"/>
      <point x="277" y="935"/>
      <point x="255" y="912"/>
      <point x="227.16339869278335" y="911.5705882353267" type="curve" smooth="yes"/>
      <point x="201" y="912"/>
      <point x="176" y="935"/>
    </contour>
  </outline>
</glyph>
<glyph name="P" format="2">
  <advance width="984"/>
  <unicode hex="0050"/>
  <outline>
    <contour>
      <point x="170.0" y="0.0" type="line"/>
      <point x="170.0" y="1456.0" type="line"/>
      <point x="520.7695816993817" y="1456.0" type="line" smooth="yes"/>
      <point x="786" y="1456"/>
      <point x="906" y="1323"/>
      <point x="906.0588562092099" y="1034.85396078433" type="curve" smooth="yes"/>
      <point x="906" y="750"/>
      <point x="786" y="615"/>
      <point x="520.7695816993817" y="615.3692810457733" type="curve" smooth="yes"/>
      <point x="221.6941307189" y="615.3692810457733" type="line"/>
      <point x="221.6941307189" y="0.0" type="line"/>
    </contour>
    <contour>
      <point x="221.6941307189" y="671.3079999999999" type="line"/>
      <point x="520.7695816993817" y="671.3079999999999" type="line" smooth="yes"/>
      <point x="768" y="671"/>
      <point x="853" y="807"/>
      <point x="853.3410588235049" y="1034.85396078433" type="curve" smooth="yes"/>
      <point x="853" y="1265"/>
      <point x="768" y="1400"/>
      <point x="520.7695816993817" y="1400.1786013072165" type="curve" smooth="yes"/>
      <point x="221.6941307189" y="1400.1786013072165" type="line"/>
    </contour>
  </outline>
</glyph>
<glyph name="S" format="2">
  <advance width="980"/>
  <unicode hex="0053"/>
  <outline>
    <contour>
      <point x="90.0" y="379.8253594771133" type="curve" smooth="yes"/>
      <point x="90.0" y="402.49202614378" type="line"/>
      <point x="141.6941307189" y="402.49202614378" type="line"/>
      <point x="141.6941307189" y="379.8253594771133" type="line" smooth="yes"/>
      <point x="142" y="157"/>
      <point x="271" y="26"/>
      <point x="499.254993464055" y="26.177398692783328" type="curve" smooth="yes"/>
      <point x="727" y="26"/>
      <point x="849" y="169"/>
      <point x="849.33584313732" y="350.4026797385566" type="curve" smooth="yes"/>
      <point x="849" y="516"/>
      <point x="812" y="591"/>
      <point x="511.8381960784883" y="708.4212810457733" type="curve" smooth="yes"/>
      <point x="244" y="815"/>
      <point x="117" y="919"/>
      <point x="117.12071895422666" y="1118.6479738562198" type="curve" smooth="yes"/>
      <point x="117" y="1357"/>
      <point x="256" y="1486"/>
      <point x="489.774980392165" y="1486.0" type="curve" smooth="yes"/>
      <point x="725" y="1486"/>
      <point x="872" y="1308"/>
      <point x="872.0832549019933" y="1082.1746405228866" type="curve" smooth="yes"/>
      <point x="872.0832549019933" y="1059.50797385622" type="line"/>
      <point x="821.3384705881783" y="1059.50797385622" type="line"/>
      <point x="821.3384705881783" y="1082.1746405228866" type="line" smooth="yes"/>
      <point x="821" y="1279"/>
      <point x="710" y="1430"/>
      <point x="489.774980392165" y="1429.8226013072167" type="curve" smooth="yes"/>
      <point x="263" y="1430"/>
      <point x="169" y="1300"/>
      <point x="168.86218300659831" y="1134.3798132586749" type="curve" smooth="yes"/>
      <point x="169" y="1004"/>
      <point x="242" y="891"/>
      <point x="526.609150326735" y="771.1053856208932" type="curve" smooth="yes"/>
      <point x="789" y="658"/>
      <point x="900" y="561"/>
      <point x="900.1279607843301" y="352.3013725490033" type="curve" smooth="yes"/>
      <point x="900" y="100"/>
      <point x="747" y="-30"/>
      <point x="499.254993464055" y="-30.0" type="curve" smooth="yes"/>
      <point x="250" y="-30"/>
      <point x="90" y="97"/>
    </contour>
  </outline>
</glyph>
<glyph name="Z" format="2">
  <advance width="898"/>
  <unicode hex="005A"/>
  <outline>
    <contour>
      <point x="-39.795331465900716" y="0.0" type="line"/>
      <point x="-39.795331465900716" y="36.87205228756001" type="line"/>
      <point x="826.4234659196659" y="1400.1786013072165" type="line"/>
      <point x="-25.23263865545404" y="1400.1786013072165" type="line"/>
      <point x="-25.23263865545404" y="1456.0" type="line"/>
      <point x="903.5955116712809" y="1456.0" type="line"/>
      <point x="903.5955116712809" y="1419.1279477124401" type="line"/>
      <point x="37.376714285714286" y="55.82139869278335" type="line"/>
      <point x="941.1635639589792" y="55.82139869278335" type="line"/>
      <point x="941.1635639589792" y="0.0" type="line"/>
    </contour>
  </outline>
</glyph>
<glyph name="b" format="2">
  <advance width="1002"/>
  <unicode hex="0062"/>
  <outline>
    <contour>
      <point x="148.0" y="0.0" type="line"/>
      <point x="148.0" y="1536.0" type="line"/>
      <point x="198.88678431367666" y="1536.0" type="line"/>
      <point x="198.88678431367666" y="947.9769467786546" type="line"/>
      <point x="276" y="1035"/>
      <point x="389" y="1097"/>
      <point x="546.40198692811" y="1096.857142857143" type="curve" smooth="yes"/>
      <point x="783" y="1097"/>
      <point x="916" y="870"/>
      <point x="915.5744444443983" y="554.4285714285714" type="curve" smooth="yes"/>
      <point x="915.5744444443983" y="522.4285714285714" type="line" smooth="yes"/>
      <point x="916" y="207"/>
      <point x="783" y="-20"/>
      <point x="546.40198692811" y="-20.0" type="curve" smooth="yes"/>
      <point x="389" y="-20"/>
      <point x="260" y="53"/>
      <point x="193.71610457512" y="141.88019607848835" type="curve"/>
      <point x="197.89881045745665" y="141.88019607848835" type="line"/>
      <point x="197.54146405223332" y="0.0" type="line"/>
    </contour>
    <contour>
      <point x="198.88678431367666" y="217.96026143793836" type="line"/>
      <point x="250" y="120"/>
      <point x="363" y="37"/>
      <point x="521.31985620921" y="37.48141176467334" type="curve" smooth="yes"/>
      <point x="760" y="37"/>
      <point x="864" y="202"/>
      <point x="863.8329803921649" y="490.42857142857144" type="curve" smooth="yes"/>
      <point x="863.8329803921649" y="586.4285714285714" type="line" smooth="yes"/>
      <point x="864" y="875"/>
      <point x="759" y="1039"/>
      <point x="525.5865228758767" y="1039.3757310924696" type="curve" smooth="yes"/>
      <point x="371" y="1039"/>
      <point x="244" y="945"/>
      <point x="198.88678431367666" y="858.8968814192045" type="curve"/>
    </contour>
  </outline>
</glyph>
<glyph name="f" format="2">
  <advance width="530"/>
  <unicode hex="0066"/>
  <outline>
    <contour>
      <point x="226.32862745099663" y="0.0" type="line"/>
      <point x="226.32862745099663" y="1168.3623529411684" type="line" smooth="yes"/>
      <point x="226" y="1421"/>
      <point x="328" y="1556"/>
      <point x="496.98002614378004" y="1556.0" type="curve" smooth="yes"/>
      <point x="536" y="1556"/>
      <point x="581" y="1548"/>
      <point x="615.306980392165" y="1540.0" type="curve"/>
      <point x="604.5389673202751" y="1489.2392810457734" type="line"/>
      <point x="579" y="1497"/>
      <point x="535" y="1505"/>
      <point x="495.5707320261166" y="1505.0092810457732" type="curve" smooth="yes"/>
      <point x="356" y="1505"/>
      <point x="276" y="1393"/>
      <point x="276.26606535944995" y="1168.3623529411684" type="curve" smooth="yes"/>
      <point x="276.26606535944995" y="1054.7184500466963" type="line"/>
      <point x="276.26606535944995" y="1044.0064500466963" type="line"/>
      <point x="276.26606535944995" y="0.0" type="line"/>
    </contour>
    <contour>
      <point x="25.0" y="1019.9690644258029" type="line"/>
      <point x="25.0" y="1076.857142857143" type="line"/>
      <point x="242.63793464055" y="1076.857142857143" type="line"/>
      <point x="257.17273202611665" y="1076.857142857143" type="line"/>
      <point x="540.2028235293467" y="1076.857142857143" type="line"/>
      <point x="540.2028235293467" y="1019.9690644258029" type="line"/>
    </contour>
  </outline>
</glyph>
<glyph name="m" format="2">
  <advance width="1549"/>
  <unicode hex="006D"/>
  <outline>
    <contour>
      <point x="148.0" y="0.0" type="line"/>
      <point x="148.0" y="1076.857142857143" type="line"/>
      <point x="197.54146405223332" y="1076.857142857143" type="line"/>
      <point x="197.89881045745665" y="916.0967507003046" type="line"/>
      <point x="193.71610457512" y="916.0967507003046" type="line"/>
      <point x="278" y="1038"/>
      <point x="383" y="1097"/>
      <point x="527.3056666666666" y="1096.857142857143" type="curve" smooth="yes"/>
      <point x="661" y="1097"/>
      <point x="756" y="1027"/>
      <point x="787.6927973855667" y="907.2662147525378" type="curve"/>
      <point x="783.7314248365633" y="907.2662147525378" type="line"/>
      <point x="853" y="1021"/>
      <point x="981" y="1097"/>
      <point x="1132.55106535945" y="1096.857142857143" type="curve" smooth="yes"/>
      <point x="1297" y="1097"/>
      <point x="1411" y="973"/>
      <point x="1411.2083660130586" y="823.8430905695828" type="curve" smooth="yes"/>
      <point x="1411.2083660130586" y="0.0" type="line"/>
      <point x="1360.2042614379382" y="0.0" type="line"/>
      <point x="1360.2042614379382" y="792.7764239029161" type="line" smooth="yes"/>
      <point x="1357" y="969"/>
      <point x="1267" y="1041"/>
      <point x="1110.4753071895534" y="1041.1544108310263" type="curve" smooth="yes"/>
      <point x="959" y="1041"/>
      <point x="859" y="950"/>
      <point x="805.5222483660484" y="859.0833520075212" type="curve"/>
      <point x="805.5222483660484" y="0.0" type="line"/>
      <point x="752.6194509803432" y="0.0" type="line"/>
      <point x="752.6194509803432" y="794.9097572362496" type="line" smooth="yes"/>
      <point x="750" y="968"/>
      <point x="649" y="1041"/>
      <point x="508.1065098039867" y="1041.1544108310263" type="curve" smooth="yes"/>
      <point x="372" y="1041"/>
      <point x="258" y="950"/>
      <point x="198.88678431367666" y="859.0833520075212" type="curve"/>
      <point x="198.88678431367666" y="0.0" type="line"/>
    </contour>
  </outline>
</glyph>
<glyph name="t" format="2">
  <advance width="587"/>
  <unicode hex="0074"/>
  <outline>
    <contour>
      <point x="0.0" y="1019.9690644258029" type="line"/>
      <point x="0.0" y="1076.857142857143" type="line"/>
      <point x="537.3575294118217" y="1076.857142857143" type="line"/>
      <point x="537.3575294118217" y="1019.9690644258029" type="line"/>
    </contour>
    <contour>
      <point x="215.76593464055" y="263.79738562089335" type="curve" smooth="yes"/>
      <point x="215.76593464055" y="1043.769116713363" type="line"/>
      <point x="215.76593464055" y="1054.9557833800295" type="line"/>
      <point x="215.36666666666667" y="1320.5714285714287" type="line"/>
      <point x="266.95" y="1320.5714285714287" type="line"/>
      <point x="266.6527189542267" y="256.33071895422665" type="line" smooth="yes"/>
      <point x="267" y="80"/>
      <point x="311" y="25"/>
      <point x="413.6143790849483" y="24.990718954226665" type="curve" smooth="yes"/>
      <point x="449" y="25"/>
      <point x="477" y="29"/>
      <point x="508.58130718955334" y="39.776052287560006" type="curve"/>
      <point x="508.58130718955334" y="-9.406666666666666" type="line"/>
      <point x="484" y="-20"/>
      <point x="448" y="-30"/>
      <point x="402.192993464055" y="-30.0" type="curve" smooth="yes"/>
      <point x="287" y="-30"/>
      <point x="216" y="60"/>
    </contour>
  </outline>
</glyph>
<glyph name="v" format="2">
  <advance width="906"/>
  <unicode hex="0076"/>
  <outline>
    <contour>
      <point x="0.0" y="1076.857142857143" type="line"/>
      <point x="78.202941176495" y="1076.857142857143" type="line"/>
      <point x="402.2743697479236" y="211.66167133517905" type="line" smooth="yes"/>
      <point x="423" y="158"/>
      <point x="435" y="137"/>
      <point x="448.99225023348095" y="54.469374416435954" type="curve"/>
      <point x="456.37558356681427" y="54.469374416435954" type="line"/>
      <point x="471" y="137"/>
      <point x="483" y="158"/>
      <point x="503.09346405223334" y="211.66167133517905" type="curve" smooth="yes"/>
      <point x="830.8915032680418" y="1076.857142857143" type="line"/>
      <point x="905.7637254901716" y="1076.857142857143" type="line"/>
      <point x="488.27432026144334" y="0.0" type="line"/>
      <point x="418.513071895395" y="0.0" type="line"/>
    </contour>
  </outline>
</glyph>
<glyph name="registered" format="2">
  <advance width="1541"/>
  <unicode hex="00AE"/>
  <outline>
    <contour>
      <point x="48.63333333333333" y="687.0" type="curve" smooth="yes"/>
      <point x="49" y="1159"/>
      <point x="334" y="1505"/>
      <point x="770.4666666666667" y="1505.1666666666667" type="curve" smooth="yes"/>
      <point x="1206" y="1505"/>
      <point x="1492" y="1159"/>
      <point x="1492.3" y="687.0" type="curve" smooth="yes"/>
      <point x="1492" y="218"/>
      <point x="1206" y="-133"/>
      <point x="770.4666666666667" y="-133.16666666666666" type="curve" smooth="yes"/>
      <point x="334" y="-133"/>
      <point x="49" y="218"/>
    </contour>
    <contour>
      <point x="115.01666666666667" y="687.0" type="curve" smooth="yes"/>
      <point x="115" y="236"/>
      <point x="348" y="-75"/>
      <point x="771.4666666666667" y="-74.85" type="curve" smooth="yes"/>
      <point x="1194" y="-75"/>
      <point x="1426" y="236"/>
      <point x="1425.5333333333333" y="687.0" type="curve" smooth="yes"/>
      <point x="1426" y="1136"/>
      <point x="1194" y="1447"/>
      <point x="771.4666666666667" y="1447.2333333333333" type="curve" smooth="yes"/>
      <point x="348" y="1447"/>
      <point x="115" y="1136"/>
    </contour>
    <contour>
      <point x="859.3333333333334" y="612.2166666666667" type="line"/>
      <point x="580.5666666666666" y="612.2166666666667" type="line"/>
      <point x="580.5666666666666" y="225.0" type="line"/>
      <point x="523.4666666666667" y="225.0" type="line"/>
      <point x="523.4666666666667" y="1158.0" type="line"/>
      <point x="764.4666666666667" y="1158.0" type="line" smooth="yes"/>
      <point x="974" y="1158"/>
      <point x="1059" y="1052"/>
      <point x="1059.4666666666667" y="892.2166666666667" type="curve" smooth="yes"/>
      <point x="1059" y="759"/>
      <point x="984" y="656"/>
      <point x="896.2666666666667" y="633.2166666666667" type="curve"/>
      <point x="914" y="602"/>
      <point x="948" y="562"/>
      <point x="965.1166666666667" y="516.1666666666666" type="curve" smooth="yes"/>
      <point x="1058.5666666666666" y="243.0" type="line"/>
      <point x="1058.5666666666666" y="225.0" type="line"/>
      <point x="1008.2166666666667" y="225.0" type="line"/>
    </contour>
    <contour>
      <point x="765.4666666666667" y="1099.6833333333334" type="curve" smooth="yes"/>
      <point x="580.5666666666666" y="1099.6833333333334" type="line"/>
      <point x="580.5666666666666" y="671.6" type="line"/>
      <point x="790.4666666666667" y="671.6" type="line" smooth="yes"/>
      <point x="975" y="672"/>
      <point x="1007" y="766"/>
      <point x="1007.1166666666667" y="889.4333333333333" type="curve" smooth="yes"/>
      <point x="1007" y="1006"/>
      <point x="874" y="1100"/>
    </contour>
  </outline>
</glyph>
<glyph name="degree" format="2">
  <advance width="765"/>
  <unicode hex="00B0"/>
  <outline>
    <contour>
      <point x="169.33333333333331" y="1247.4333333333334" type="curve"/>
      <point x="169" y="1383"/>
      <point x="258" y="1477"/>
      <point x="384.6166666666667" y="1477.0" type="curve" smooth="yes"/>
      <point x="509" y="1477"/>
      <point x="596" y="1383"/>
      <point x="595.9" y="1247.4333333333334" type="curve" smooth="yes"/>
      <point x="596" y="1113"/>
      <point x="509" y="1021"/>
      <point x="384.6166666666667" y="1020.8666666666667" type="curve" smooth="yes"/>
      <point x="257" y="1021"/>
      <point x="169" y="1114"/>
    </contour>
    <contour>
      <point x="238.0" y="1247.4333333333334" type="curve"/>
      <point x="238" y="1158"/>
      <point x="300" y="1092"/>
      <point x="384.6166666666667" y="1092.15" type="curve" smooth="yes"/>
      <point x="468" y="1092"/>
      <point x="527" y="1158"/>
      <point x="527.2333333333333" y="1247.4333333333334" type="curve" smooth="yes"/>
      <point x="527" y="1340"/>
      <point x="468" y="1406"/>
      <point x="384.6166666666667" y="1405.7166666666667" type="curve" smooth="yes"/>
      <point x="300" y="1406"/>
      <point x="238" y="1340"/>
    </contour>
  </outline>
</glyph>
<glyph name="periodcentered" format="2">
  <advance width="365"/>
  <unicode hex="00B7"/>
  <outline>
    <contour>
      <point x="106.83333333333333" y="749.0" type="curve" smooth="yes"/>
      <point x="107" y="791"/>
      <point x="134" y="822"/>
      <point x="182.41666666666669" y="822.35" type="curve" smooth="yes"/>
      <point x="231" y="822"/>
      <point x="257" y="791"/>
      <point x="256.6166666666667" y="749.0" type="curve" smooth="yes"/>
      <point x="257" y="707"/>
      <point x="231" y="676"/>
      <point x="182.41666666666669" y="675.65" type="curve" smooth="yes"/>
      <point x="134" y="676"/>
      <point x="107" y="707"/>
    </contour>
  </outline>
</glyph>
<glyph name="Thorn" format="2">
  <advance width="893"/>
  <unicode hex="00DE"/>
  <guideline x="0" y="901.0" angle="0" identifier="i9jYwjBDP4"/>
  <guideline x="0" y="555.0" angle="0" identifier="T8KKW8oxop"/>
  <outline>
    <contour>
      <point x="170.0" y="1456.0" type="line"/>
      <point x="221.45000000000002" y="1456.0" type="line"/>
      <point x="221.45000000000002" y="1169.2833333333333" type="line"/>
      <point x="481.5333333333333" y="1169.2833333333333" type="line" smooth="yes"/>
      <point x="716" y="1169"/>
      <point x="815" y="1022"/>
      <point x="815.1666666666666" y="745.35" type="curve" smooth="yes"/>
      <point x="815" y="467"/>
      <point x="714" y="312"/>
      <point x="481.5333333333333" y="310.8" type="curve" smooth="yes"/>
      <point x="222.51666666666668" y="310.8" type="line"/>
      <point x="222.51666666666668" y="0.0" type="line"/>
      <point x="170.0" y="0.0" type="line"/>
    </contour>
    <contour>
      <point x="481.5333333333333" y="1107.45" type="curve" smooth="yes"/>
      <point x="222.51666666666668" y="1107.45" type="line"/>
      <point x="222.51666666666668" y="373.7" type="line"/>
      <point x="481.5333333333333" y="373.7" type="line" smooth="yes"/>
      <point x="705" y="374"/>
      <point x="761" y="554"/>
      <point x="761.2666666666667" y="748.25" type="curve" smooth="yes"/>
      <point x="761" y="942"/>
      <point x="705" y="1106"/>
    </contour>
  </outline>
</glyph>
<glyph name="apostrophemod" format="2">
  <advance width="600"/>
  <unicode hex="02BC"/>
  <outline>
    <contour>
      <point x="261.51666666666665" y="1165.75" type="line"/>
      <point x="300.2873333333333" y="1207.8036666666665"/>
      <point x="328.95366666666666" y="1301.594"/>
      <point x="347.2" y="1387.6666666666667" type="curve"/>
      <point x="298.40166666666664" y="1387.6666666666667"/>
      <point x="252.91666666666669" y="1422.0226666666665"/>
      <point x="252.91666666666669" y="1467.7166666666667" type="curve" smooth="yes"/>
      <point x="252.91666666666669" y="1513.9243333333334"/>
      <point x="284.581" y="1546.0"/>
      <point x="326.3666666666667" y="1546.0" type="curve" smooth="yes"/>
      <point x="368.3533333333333" y="1546.0"/>
      <point x="406.6666666666667" y="1505.0086666666666"/>
      <point x="406.6666666666667" y="1446.3166666666666" type="curve" smooth="yes"/>
      <point x="406.6666666666667" y="1349.5686666666666"/>
      <point x="343.90133333333335" y="1205.33"/>
      <point x="269.93333333333334" y="1156.8666666666668" type="curve"/>
    </contour>
  </outline>
</glyph>
<glyph name="ring" format="2">
  <advance width="1024"/>
  <unicode hex="02DA"/>
  <outline>
    <contour>
      <point x="303.98333333333335" y="1390.3833333333334" type="curve"/>
      <point x="303.98333333333335" y="1509.1296666666667"/>
      <point x="402.80966666666666" y="1609.7666666666667"/>
      <point x="514.7666666666667" y="1609.7666666666667" type="curve" smooth="yes"/>
      <point x="627.7510000000001" y="1609.7666666666667"/>
      <point x="721.4" y="1509.1296666666667"/>
      <point x="721.4" y="1390.3833333333334" type="curve" smooth="yes"/>
      <point x="721.4" y="1270.297"/>
      <point x="627.7510000000001" y="1173.6166666666666"/>
      <point x="514.7666666666667" y="1173.6166666666666" type="curve" smooth="yes"/>
      <point x="402.80966666666666" y="1173.6166666666666"/>
      <point x="303.98333333333335" y="1270.297"/>
    </contour>
    <contour>
      <point x="368.3333333333333" y="1390.3833333333334" type="curve"/>
      <point x="368.3333333333333" y="1305.472"/>
      <point x="437.15833333333336" y="1246.3333333333333"/>
      <point x="514.7666666666667" y="1246.3333333333333" type="curve" smooth="yes"/>
      <point x="594.2286666666668" y="1246.3333333333333"/>
      <point x="655.6666666666666" y="1306.4993333333332"/>
      <point x="655.6666666666666" y="1390.3833333333334" type="curve" smooth="yes"/>
      <point x="655.6666666666666" y="1476.1209999999999"/>
      <point x="594.2286666666668" y="1537.4333333333334"/>
      <point x="514.7666666666667" y="1537.4333333333334" type="curve" smooth="yes"/>
      <point x="437.15833333333336" y="1537.4333333333334"/>
      <point x="368.3333333333333" y="1476.1209999999999"/>
    </contour>
  </outline>
</glyph>
<glyph name="hookabovecomb" format="2">
  <advance width="1024"/>
  <unicode hex="0309"/>
  <outline>
    <contour>
      <point x="474.75" y="1147.0" type="line"/>
      <point x="474.75" y="1186.0" type="line" smooth="yes"/>
      <point x="474.75" y="1237.1433333333334"/>
      <point x="486.1363333333333" y="1236.4489999999998"/>
      <point x="608.3666666666667" y="1256.75" type="curve" smooth="yes"/>
      <point x="692.675" y="1271.1773333333333"/>
      <point x="744.4833333333333" y="1324.6973333333335"/>
      <point x="744.4833333333333" y="1394.4666666666667" type="curve" smooth="yes"/>
      <point x="744.4833333333333" y="1481.9463333333333"/>
      <point x="688.765" y="1531.7166666666667"/>
      <point x="588.6" y="1531.7166666666667" type="curve" smooth="yes"/>
      <point x="491.71799999999996" y="1531.7166666666667"/>
      <point x="416.55333333333334" y="1495.9309999999998"/>
      <point x="384.6166666666667" y="1479.65" type="curve"/>
      <point x="363.81666666666666" y="1520.2666666666667" type="line"/>
      <point x="405.1556666666667" y="1545.7266666666667"/>
      <point x="472.34233333333333" y="1577.5"/>
      <point x="587.7833333333333" y="1577.5" type="curve" smooth="yes"/>
      <point x="726.3393333333333" y="1577.5"/>
      <point x="805.1166666666667" y="1503.4163333333333"/>
      <point x="805.1166666666667" y="1395.1666666666667" type="curve" smooth="yes"/>
      <point x="805.1166666666667" y="1291.339"/>
      <point x="700.6706666666666" y="1222.2603333333332"/>
      <point x="542.4166666666666" y="1205.6666666666667" type="curve"/>
      <point x="542.4166666666666" y="1147.0" type="line"/>
    </contour>
  </outline>
</glyph>
<glyph name="Theta" format="2">
  <advance width="1262"/>
  <unicode hex="0398"/>
  <outline>
    <contour>
      <point x="604.5166666666667" y="-30.0" type="curve" smooth="yes"/>
      <point x="310.4313333333333" y="-30.0"/>
      <point x="115.0" y="192.41099999999994"/>
      <point x="115.0" y="702.75" type="curve" smooth="yes"/>
      <point x="115.0" y="753.25" type="line" smooth="yes"/>
      <point x="115.0" y="1263.589"/>
      <point x="308.57766666666663" y="1486.0"/>
      <point x="604.5166666666667" y="1486.0" type="curve" smooth="yes"/>
      <point x="900.4556666666667" y="1486.0"/>
      <point x="1094.35" y="1263.589"/>
      <point x="1094.35" y="753.25" type="curve" smooth="yes"/>
      <point x="1094.35" y="702.75" type="line" smooth="yes"/>
      <point x="1094.35" y="192.41099999999994"/>
      <point x="900.4556666666667" y="-30.0"/>
    </contour>
    <contour>
      <point x="604.5166666666667" y="26.30000000000001" type="curve" smooth="yes"/>
      <point x="874.9733333333334" y="26.30000000000001"/>
      <point x="1041.6833333333334" y="219.1923333333333"/>
      <point x="1041.6833333333334" y="670.75" type="curve" smooth="yes"/>
      <point x="1041.6833333333334" y="786.3166666666666" type="line" smooth="yes"/>
      <point x="1041.6833333333334" y="1237.8743333333332"/>
      <point x="874.9733333333334" y="1429.7"/>
      <point x="604.5166666666667" y="1429.7" type="curve" smooth="yes"/>
      <point x="335.91366666666664" y="1429.7"/>
      <point x="166.6" y="1237.8743333333332"/>
      <point x="166.6" y="786.3166666666666" type="curve" smooth="yes"/>
      <point x="166.6" y="670.75" type="line" smooth="yes"/>
      <point x="166.6" y="219.1923333333333"/>
      <point x="335.91366666666664" y="26.30000000000001"/>
    </contour>
    <contour>
      <point x="280.45" y="686.6666666666666" type="line"/>
      <point x="280.45" y="757.8333333333334" type="line"/>
      <point x="927.8333333333334" y="757.8333333333334" type="line"/>
      <point x="927.8333333333334" y="686.6666666666666" type="line"/>
    </contour>
  </outline>
</glyph>
<glyph name="Psi" format="2">
  <advance width="1428"/>
  <unicode hex="03A8"/>
  <outline>
    <contour>
      <point x="682.8833333333333" y="0.0" type="line"/>
      <point x="682.8833333333333" y="1456.0" type="line"/>
      <point x="742.6333333333333" y="1456.0" type="line"/>
      <point x="742.6333333333333" y="0.0" type="line"/>
    </contour>
    <contour>
      <point x="708.5" y="361.0" type="line"/>
      <point x="708.8333333333334" y="361.0" type="line" smooth="yes"/>
      <point x="285.16999999999996" y="361.0"/>
      <point x="155.0" y="535.38"/>
      <point x="155.0" y="928.0" type="curve" smooth="yes"/>
      <point x="155.0" y="1456.0" type="line"/>
      <point x="205.98333333333335" y="1456.0" type="line"/>
      <point x="205.98333333333335" y="926.0" type="line" smooth="yes"/>
      <point x="205.98333333333335" y="523.6873333333333"/>
      <point x="374.7626666666667" y="426.0"/>
      <point x="719.5" y="426.0" type="curve" smooth="yes"/>
      <point x="708.5" y="426.0" type="line"/>
    </contour>
    <contour>
      <point x="718.0833333333334" y="361.0" type="line"/>
      <point x="718.0833333333334" y="426.0" type="line"/>
      <point x="702.7333333333333" y="426.0" type="line" smooth="yes"/>
      <point x="1050.843" y="426.0"/>
      <point x="1220.6" y="523.6873333333333"/>
      <point x="1220.6" y="926.0" type="curve" smooth="yes"/>
      <point x="1220.6" y="1456.0" type="line"/>
      <point x="1271.5833333333333" y="1456.0" type="line"/>
      <point x="1271.5833333333333" y="928.0" type="line" smooth="yes"/>
      <point x="1271.5833333333333" y="535.38"/>
      <point x="1141.4133333333334" y="361.0"/>
      <point x="717.75" y="361.0" type="curve" smooth="yes"/>
    </contour>
  </outline>
</glyph>
<glyph name="alpha" format="2">
  <advance width="1039"/>
  <unicode hex="03B1"/>
  <anchor x="512.1595238095238" y="1076.857142857143" name="GRK_top"/>
  <outline>
    <contour>
      <point x="452.6666666666667" y="-20.0" type="curve"/>
      <point x="216.00033333333332" y="-20.0"/>
      <point x="85.0" y="206.04285714285714"/>
      <point x="85.0" y="522.8571428571429" type="curve" smooth="yes"/>
      <point x="85.0" y="554.0" type="line" smooth="yes"/>
      <point x="85.0" y="874.9459523809525"/>
      <point x="216.22766666666666" y="1096.857142857143"/>
      <point x="457.45" y="1096.857142857143" type="curve" smooth="yes"/>
      <point x="601.634" y="1096.857142857143"/>
      <point x="722.3159999999999" y="1042.6868095238094"/>
      <point x="805.0833333333334" y="935.1071428571429" type="curve"/>
      <point x="803.4166666666666" y="935.1071428571429" type="line"/>
      <point x="803.4333333333333" y="1076.857142857143" type="line"/>
      <point x="855.4333333333334" y="1076.857142857143" type="line"/>
      <point x="855.4333333333334" y="141.06666666666666" type="line" smooth="yes"/>
      <point x="855.4333333333334" y="43.42533333333333"/>
      <point x="881.1976666666666" y="31.46666666666667"/>
      <point x="926.3333333333334" y="31.46666666666667" type="curve" smooth="yes"/>
      <point x="947.8626666666667" y="31.46666666666667"/>
      <point x="970.549" y="38.53666666666667"/>
      <point x="988.6166666666667" y="47.91666666666667" type="curve"/>
      <point x="988.6166666666667" y="-5.316666666666666" type="line"/>
      <point x="969.2983333333334" y="-15.523000000000001"/>
      <point x="916.9103333333334" y="-19.333333333333336"/>
      <point x="900.3166666666666" y="-19.333333333333336" type="curve"/>
      <point x="850.089" y="-19.333333333333336"/>
      <point x="818.0903333333333" y="7.1983333333333235"/>
      <point x="808.8666666666667" y="119.2" type="curve"/>
      <point x="809.15" y="119.2" type="line"/>
      <point x="734.78" y="46.638999999999996"/>
      <point x="637.9216666666666" y="-20.0"/>
    </contour>
    <contour>
      <point x="482.0333333333333" y="37.81666666666666" type="curve" smooth="yes"/>
      <point x="632.0463333333333" y="37.81666666666666"/>
      <point x="758.805" y="120.91866666666665"/>
      <point x="802.4666666666667" y="222.13333333333333" type="curve"/>
      <point x="802.4666666666667" y="868.9071428571428" type="line"/>
      <point x="782.6793333333334" y="918.1968095238095"/>
      <point x="688.4836666666666" y="1039.0404761904763"/>
      <point x="472.9" y="1039.0404761904763" type="curve" smooth="yes"/>
      <point x="264.463" y="1039.0404761904763"/>
      <point x="136.43333333333334" y="895.2129523809524"/>
      <point x="136.43333333333334" y="594.3" type="curve" smooth="yes"/>
      <point x="136.43333333333334" y="509.82380952380953" type="line" smooth="yes"/>
      <point x="136.43333333333334" y="188.94485714285713"/>
      <point x="241.07900000000004" y="37.81666666666666"/>
    </contour>
  </outline>
</glyph>
<glyph name="gamma" format="2">
  <advance width="906"/>
  <unicode hex="03B3"/>
  <outline>
    <contour>
      <point x="432.65" y="-366.0" type="line"/>
      <point x="432.65" y="-10.82142857142857" type="line"/>
      <point x="0.0" y="1076.857142857143" type="line"/>
      <point x="79.01666666666667" y="1076.857142857143" type="line"/>
      <point x="396.6" y="225.4142857142857" type="line" smooth="yes"/>
      <point x="443.8828571428572" y="104.03261904761906"/>
      <point x="447.7303809523809" y="77.81623809523812"/>
      <point x="448.80238095238093" y="49.985714285714295" type="curve"/>
      <point x="455.1190476190476" y="49.985714285714295" type="line"/>
      <point x="458.04471428571424" y="77.81623809523812"/>
      <point x="474.0809047619048" y="135.2578095238095"/>
      <point x="508.3880952380952" y="225.4142857142857" type="curve" smooth="yes"/>
      <point x="831.0" y="1076.857142857143" type="line"/>
      <point x="906.3333333333333" y="1076.857142857143" type="line"/>
      <point x="473.68333333333334" y="-10.82142857142857" type="line"/>
      <point x="473.68333333333334" y="-366.0" type="line"/>
    </contour>
  </outline>
</glyph>
<glyph name="delta" format="2">
  <advance width="975"/>
  <unicode hex="03B4"/>
  <outline>
    <contour>
      <point x="488.12142857142857" y="-30.0" type="curve" smooth="yes"/>
      <point x="735.1504285714285" y="-30.0"/>
      <point x="896.6" y="161.19242857142854"/>
      <point x="896.6" y="445.70952380952383" type="curve"/>
      <point x="896.6" y="445.29047619047617" type="line"/>
      <point x="896.6" y="754.6581904761906"/>
      <point x="739.5876666666667" y="894.5624285714285"/>
      <point x="558.9333333333334" y="1008.995238095238" type="curve" smooth="yes"/>
      <point x="320.726" y="1148.0968095238095"/>
      <point x="270.78333333333336" y="1203.5201904761905"/>
      <point x="270.78333333333336" y="1306.0238095238096" type="curve" smooth="yes"/>
      <point x="270.78333333333336" y="1430.6980476190477"/>
      <point x="345.532" y="1512.7833333333333"/>
      <point x="535.6333333333333" y="1512.7833333333333" type="curve"/>
      <point x="642.7663333333334" y="1512.7833333333333"/>
      <point x="742.7223333333334" y="1479.2030000000002"/>
      <point x="765.0333333333333" y="1432.8166666666666" type="curve"/>
      <point x="798.6833333333334" y="1475.9333333333334" type="line"/>
      <point x="738.4503333333333" y="1527.7689999999998"/>
      <point x="619.8196666666666" y="1556.0"/>
      <point x="531.0" y="1556.0" type="curve" smooth="yes"/>
      <point x="326.65" y="1556.0"/>
      <point x="218.87666666666667" y="1452.5222857142858"/>
      <point x="220.21666666666667" y="1299.6857142857143" type="curve"/>
      <point x="218.87666666666667" y="1185.2592857142859"/>
      <point x="291.72299999999996" y="1096.558238095238"/>
      <point x="607.5833333333334" y="927.5619047619048" type="curve" smooth="yes"/>
      <point x="743.0732857142857" y="840.1651904761906"/>
      <point x="844.65" y="683.9601904761905"/>
      <point x="844.65" y="442.3071428571429" type="curve"/>
      <point x="844.65" y="435.76666666666665" type="line"/>
      <point x="844.65" y="126.2043333333333"/>
      <point x="701.4085238095238" y="23.61666666666666"/>
      <point x="489.2833333333333" y="23.61666666666666" type="curve" smooth="yes"/>
      <point x="259.5626666666667" y="23.61666666666666"/>
      <point x="142.6" y="172.55533333333335"/>
      <point x="142.6" y="439.0047619047619" type="curve"/>
      <point x="142.6" y="458.9952380952381" type="line"/>
      <point x="142.6" y="721.6735238095239"/>
      <point x="283.226" y="892.692238095238"/>
      <point x="479.0" y="931.2619047619048" type="curve"/>
      <point x="457.2833333333333" y="1009.0952380952381" type="line"/>
      <point x="219.50033333333332" y="940.755238095238"/>
      <point x="90.33333333333333" y="729.1508571428571"/>
      <point x="90.33333333333333" y="476.1333333333333" type="curve"/>
      <point x="90.33333333333333" y="460.0190476190476" type="line"/>
      <point x="90.33333333333333" y="142.0210952380952"/>
      <point x="250.4500952380952" y="-30.0"/>
    </contour>
  </outline>
</glyph>
<glyph name="theta" format="2">
  <advance width="987"/>
  <unicode hex="03B8"/>
  <outline>
    <contour>
      <point x="489.6" y="-30.0" type="curve" smooth="yes"/>
      <point x="252.73266666666663" y="-30.0"/>
      <point x="95.0" y="136.86666666666667"/>
      <point x="95.0" y="632.6666666666666" type="curve"/>
      <point x="95.0" y="903.3333333333334" type="line"/>
      <point x="95.0" y="1385.7333333333331"/>
      <point x="252.16199999999995" y="1556.0"/>
      <point x="487.6" y="1556.0" type="curve" smooth="yes"/>
      <point x="729.001" y="1556.0"/>
      <point x="883.65" y="1385.7333333333331"/>
      <point x="883.65" y="903.3333333333334" type="curve"/>
      <point x="883.65" y="632.6666666666666" type="line"/>
      <point x="883.65" y="136.86666666666667"/>
      <point x="731.001" y="-30.0"/>
    </contour>
    <contour>
      <point x="489.6" y="27.816666666666663" type="curve" smooth="yes"/>
      <point x="704.8933333333333" y="27.816666666666663"/>
      <point x="833.6666666666666" y="149.94066666666657"/>
      <point x="833.6666666666666" y="633.1" type="curve"/>
      <point x="833.6666666666666" y="910.7333333333333" type="line" smooth="yes"/>
      <point x="851.1536666666667" y="1399.0293333333332"/>
      <point x="709.8613333333334" y="1498.1833333333334"/>
      <point x="487.6" y="1498.1833333333334" type="curve" smooth="yes"/>
      <point x="236.08199999999994" y="1498.1833333333334"/>
      <point x="146.75" y="1352.6876666666667"/>
      <point x="146.75" y="910.7333333333333" type="curve" smooth="yes"/>
      <point x="146.75" y="633.1" type="line" smooth="yes"/>
      <point x="146.75" y="170.33099999999996"/>
      <point x="272.7656666666666" y="27.816666666666663"/>
    </contour>
    <contour>
      <point x="108.51666666666667" y="779.3142857142857" type="line"/>
      <point x="108.51666666666667" y="831.0642857142857" type="line"/>
      <point x="900.6" y="831.0642857142857" type="line"/>
      <point x="900.6" y="779.3142857142857" type="line"/>
    </contour>
  </outline>
</glyph>
<glyph name="phi" format="2">
  <advance width="1085"/>
  <unicode hex="03C6"/>
  <outline>
    <contour>
      <point x="517.7666666666667" y="-416.0" type="line"/>
      <point x="517.7666666666667" y="-30.0" type="line"/>
      <point x="293.1156666666667" y="-16.6"/>
      <point x="85.0" y="177.17976190476185"/>
      <point x="85.0" y="520.7142857142857" type="curve" smooth="yes"/>
      <point x="85.0" y="548.4285714285714" type="line" smooth="yes"/>
      <point x="85.0" y="894.8345238095237"/>
      <point x="293.1156666666667" y="1087.8857142857141"/>
      <point x="517.7666666666667" y="1101.2857142857142" type="curve"/>
      <point x="517.7666666666667" y="1536.0" type="line"/>
      <point x="567.9666666666667" y="1536.0" type="line"/>
      <point x="567.9666666666667" y="1101.2857142857142" type="line"/>
      <point x="792.6176666666667" y="1087.8857142857141"/>
      <point x="1000.7333333333333" y="894.8345238095237"/>
      <point x="1000.7333333333333" y="548.4285714285714" type="curve" smooth="yes"/>
      <point x="1000.7333333333333" y="520.7142857142857" type="line" smooth="yes"/>
      <point x="1000.7333333333333" y="177.17976190476185"/>
      <point x="792.6176666666667" y="-16.6"/>
      <point x="567.9666666666667" y="-30.0" type="curve"/>
      <point x="567.9666666666667" y="-416.0" type="line"/>
    </contour>
    <contour>
      <point x="517.7666666666667" y="27.816666666666663" type="curve"/>
      <point x="517.7666666666667" y="1043.4690476190476" type="line"/>
      <point x="294.74600000000004" y="1030.0690476190475"/>
      <point x="136.43333333333334" y="863.6311904761905"/>
      <point x="136.43333333333334" y="580.4285714285714" type="curve" smooth="yes"/>
      <point x="136.43333333333334" y="488.7142857142857" type="line" smooth="yes"/>
      <point x="136.43333333333334" y="208.38309523809522"/>
      <point x="306.18066666666664" y="41.21666666666666"/>
    </contour>
    <contour>
      <point x="567.9666666666667" y="27.816666666666663" type="line"/>
      <point x="790.9873333333333" y="41.21666666666666"/>
      <point x="949.3" y="208.38309523809522"/>
      <point x="949.3" y="488.7142857142857" type="curve" smooth="yes"/>
      <point x="949.3" y="580.4285714285714" type="line" smooth="yes"/>
      <point x="949.3" y="863.6311904761905"/>
      <point x="779.5526666666667" y="1030.0690476190475"/>
      <point x="567.9666666666667" y="1043.4690476190476" type="curve"/>
    </contour>
  </outline>
</glyph>
<glyph name="Nje" format="2">
  <advance width="1617"/>
  <unicode hex="040A"/>
  <outline>
    <contour>
      <point x="170.0" y="0.0" type="line"/>
      <point x="170.0" y="1456.0" type="line"/>
      <point x="222.05" y="1456.0" type="line"/>
      <point x="222.05" y="851.6666666666666" type="line"/>
      <point x="965.7666666666667" y="851.6666666666666" type="line"/>
      <point x="965.7666666666667" y="1456.0" type="line"/>
      <point x="1017.8166666666666" y="1456.0" type="line"/>
      <point x="1017.8166666666666" y="851.6666666666666" type="line"/>
      <point x="1316.15" y="851.6666666666666" type="line" smooth="yes"/>
      <point x="1581.8943333333334" y="837.3733333333333"/>
      <point x="1701.6166666666668" y="713.604"/>
      <point x="1701.6166666666668" y="425.81666666666666" type="curve" smooth="yes"/>
      <point x="1701.6166666666668" y="135.17066666666665"/>
      <point x="1581.8943333333334" y="0.0"/>
      <point x="1316.15" y="0.0" type="curve" smooth="yes"/>
      <point x="965.7666666666667" y="0.0" type="line"/>
      <point x="965.7666666666667" y="794.7666666666667" type="line"/>
      <point x="222.05" y="794.7666666666667" type="line"/>
      <point x="222.05" y="0.0" type="line"/>
    </contour>
    <contour>
      <point x="1017.8166666666666" y="794.7666666666667" type="line"/>
      <point x="1017.8166666666666" y="55.83333333333334" type="line"/>
      <point x="1316.15" y="55.83333333333334" type="line" smooth="yes"/>
      <point x="1564.519" y="55.83333333333334"/>
      <point x="1649.5666666666666" y="194.73366666666666"/>
      <point x="1649.5666666666666" y="425.81666666666666" type="curve" smooth="yes"/>
      <point x="1649.5666666666666" y="657.3240000000001"/>
      <point x="1564.8816666666667" y="794.7666666666667"/>
      <point x="1315.0833333333333" y="794.7666666666667" type="curve" smooth="yes"/>
    </contour>
  </outline>
</glyph>
<glyph name="Ucyr" format="2">
  <advance width="997"/>
  <unicode hex="0423"/>
  <outline>
    <contour>
      <point x="457.2166666666667" y="383.3833333333333" type="line"/>
      <point x="15.0" y="1456.0" type="line"/>
      <point x="61.83333333333334" y="1456.0" type="line"/>
      <point x="418.51666666666665" y="614.05" type="line" smooth="yes"/>
      <point x="437.768" y="555.1346666666667"/>
      <point x="460.89433333333335" y="490.3046666666667"/>
      <point x="467.6166666666667" y="448.05" type="curve"/>
      <point x="476.7" y="448.05" type="line"/>
      <point x="484.3603333333333" y="490.3046666666667"/>
      <point x="507.15866666666676" y="556.6533333333334"/>
      <point x="528.8666666666667" y="614.05" type="curve" smooth="yes"/>
      <point x="922.9833333333333" y="1456.0" type="line"/>
      <point x="982.0" y="1456.0" type="line"/>
      <point x="477.18333333333334" y="360.8" type="line" smooth="yes"/>
      <point x="358.5713628482731" y="97.80363002890022"/>
      <point x="265.21043262416214" y="-14.298000000000002"/>
      <point x="191.26666666666668" y="-6.883333333333333" type="curve" smooth="yes"/>
      <point x="161.29533333333333" y="-5.0296666666666665"/>
      <point x="154.0066666666667" y="2.953666666666665"/>
      <point x="123.63333333333333" y="14.5" type="curve"/>
      <point x="123.63333333333333" y="91.13333333333333" type="line"/>
      <point x="140.629" y="80.41333333333333"/>
      <point x="122.934" y="73.13333333333333"/>
      <point x="208.78333333333333" y="73.13333333333333" type="curve" smooth="yes"/>
      <point x="287.70933333333335" y="73.13333333333333"/>
      <point x="347.2733333333333" y="195.296"/>
      <point x="476.58333333333337" y="471.91666666666663" type="curve"/>
    </contour>
  </outline>
</glyph>
<glyph name="Yu" format="2">
  <advance width="1668"/>
  <unicode hex="042E"/>
  <guideline x="732.0" y="785.0" angle="90.0" identifier="6nH5tb4DEh"/>
  <outline>
    <contour>
      <point x="170.0" y="0.0" type="line"/>
      <point x="170.0" y="1456.0" type="line"/>
      <point x="222.05" y="1456.0" type="line"/>
      <point x="222.05" y="779.45" type="line"/>
      <point x="589.55" y="779.45" type="line"/>
      <point x="589.55" y="722.55" type="line"/>
      <point x="222.05" y="722.55" type="line"/>
      <point x="222.05" y="0.0" type="line"/>
    </contour>
    <contour>
      <point x="564.6666666666666" y="702.75" type="curve" smooth="yes"/>
      <point x="564.6666666666666" y="753.25" type="line" smooth="yes"/>
      <point x="564.6666666666666" y="1263.589"/>
      <point x="779.453" y="1486.0"/>
      <point x="1058.0166666666667" y="1486.0" type="curve" smooth="yes"/>
      <point x="1336.5803333333336" y="1486.0"/>
      <point x="1551.6833333333334" y="1263.589"/>
      <point x="1551.6833333333334" y="753.25" type="curve" smooth="yes"/>
      <point x="1551.6833333333334" y="702.75" type="line" smooth="yes"/>
      <point x="1551.6833333333334" y="192.41099999999994"/>
      <point x="1336.5803333333336" y="-30.0"/>
      <point x="1058.0166666666667" y="-30.0" type="curve" smooth="yes"/>
      <point x="781.3066666666666" y="-30.0"/>
      <point x="564.6666666666666" y="192.41099999999994"/>
    </contour>
    <contour>
      <point x="616.2666666666667" y="670.75" type="line" smooth="yes"/>
      <point x="616.2666666666667" y="219.1923333333333"/>
      <point x="808.2183333333334" y="26.30000000000001"/>
      <point x="1058.0166666666667" y="26.30000000000001" type="curve" smooth="yes"/>
      <point x="1311.6116666666667" y="26.30000000000001"/>
      <point x="1499.0166666666667" y="219.1923333333333"/>
      <point x="1499.0166666666667" y="670.75" type="curve" smooth="yes"/>
      <point x="1499.0166666666667" y="786.3166666666666" type="line" smooth="yes"/>
      <point x="1499.0166666666667" y="1237.8743333333332"/>
      <point x="1311.6116666666667" y="1429.7"/>
      <point x="1058.0166666666667" y="1429.7" type="curve" smooth="yes"/>
      <point x="808.2183333333334" y="1429.7"/>
      <point x="616.2666666666667" y="1237.8743333333332"/>
      <point x="616.2666666666667" y="786.3166666666666" type="curve" smooth="yes"/>
    </contour>
  </outline>
</glyph>
<glyph name="dje" format="2">
  <advance width="964"/>
  <unicode hex="0452"/>
  <outline>
    <contour>
      <point x="265.95" y="1265.2166666666667" type="line"/>
      <point x="37.28333333333333" y="1265.2166666666667" type="line"/>
      <point x="48.28333333333333" y="1319.9166666666667" type="line"/>
      <point x="305.95" y="1319.9166666666667" type="line"/>
      <point x="537.6166666666667" y="1319.9166666666667" type="line"/>
      <point x="537.6166666666667" y="1265.2166666666667" type="line"/>
    </contour>
    <contour>
      <point x="825.8" y="-90.0" type="line" smooth="yes"/>
      <point x="825.8" y="-331.20000000000005"/>
      <point x="742.216" y="-436.0"/>
      <point x="582.6666666666667" y="-436.0" type="curve" smooth="yes"/>
      <point x="543.2036666666667" y="-436.0"/>
      <point x="508.50466666666665" y="-422.0323333333333"/>
      <point x="483.0" y="-415.53333333333336" type="curve"/>
      <point x="483.0" y="-362.16666666666663" type="line"/>
      <point x="508.795" y="-370.20666666666665"/>
      <point x="555.125" y="-380.7833333333333"/>
      <point x="589.1833333333334" y="-380.7833333333333" type="curve" smooth="yes"/>
      <point x="708.0413333333333" y="-380.7833333333333"/>
      <point x="774.2166666666667" y="-307.77733333333333"/>
      <point x="774.2166666666667" y="-125.85" type="curve" smooth="yes"/>
      <point x="774.2166666666667" y="748.3666666666667" type="line" smooth="yes"/>
      <point x="774.2166666666667" y="926.6536666666666"/>
      <point x="693.6876666666667" y="1016.7833333333333"/>
      <point x="530.9" y="1016.7833333333333" type="curve" smooth="yes"/>
      <point x="371.172" y="1016.7833333333333"/>
      <point x="258.76800000000003" y="912.1023333333334"/>
      <point x="198.2" y="791.0333333333333" type="curve"/>
      <point x="198.2" y="0.0" type="line"/>
      <point x="148.0" y="0.0" type="line"/>
      <point x="148.0" y="1536.0" type="line"/>
      <point x="198.2" y="1536.0" type="line"/>
      <point x="198.2" y="869.2" type="line"/>
      <point x="274.46833333333336" y="1003.1106666666667"/>
      <point x="363.2923333333333" y="1072.0"/>
      <point x="532.3333333333333" y="1072.0" type="curve" smooth="yes"/>
      <point x="724.7796666666668" y="1072.0"/>
      <point x="825.8" y="966.015"/>
      <point x="825.8" y="746.3666666666667" type="curve" smooth="yes"/>
    </contour>
  </outline>
</glyph>
<glyph name="quotedblbase" format="2">
  <advance width="636"/>
  <unicode hex="201E"/>
  <outline>
    <contour>
      <point x="262.6666666666667" y="220.0" type="line"/>
      <point x="262.6666666666667" y="101.68333333333334" type="line" smooth="yes"/>
      <point x="262.6666666666667" y="-18.91666666666667"/>
      <point x="226.245" y="-130.02066666666664"/>
      <point x="125.63333333333333" y="-217.43333333333334" type="curve"/>
      <point x="80.5" y="-187.31666666666666" type="line"/>
      <point x="156.45566666666667" y="-111.85233333333333"/>
      <point x="190.71666666666667" y="-9.85666666666667"/>
      <point x="190.71666666666667" y="98.68333333333334" type="curve" smooth="yes"/>
      <point x="190.71666666666667" y="220.0" type="line"/>
    </contour>
    <contour>
      <point x="489.0" y="220.0" type="line"/>
      <point x="489.0" y="101.68333333333334" type="line" smooth="yes"/>
      <point x="489.0" y="-18.91666666666667"/>
      <point x="452.5783333333334" y="-130.02066666666664"/>
      <point x="351.9666666666667" y="-217.43333333333334" type="curve"/>
      <point x="306.83333333333337" y="-187.31666666666666" type="line"/>
      <point x="382.789" y="-111.85233333333333"/>
      <point x="417.05" y="-9.85666666666667"/>
      <point x="417.05" y="98.68333333333334" type="curve" smooth="yes"/>
      <point x="417.05" y="220.0" type="line"/>
    </contour>
  </outline>
</glyph>
<glyph name="lira" format="2">
  <advance width="805"/>
  <unicode hex="20A4"/>
  <outline>
    <contour>
      <point x="796.8333333333333" y="0.0" type="line"/>
      <point x="36.0" y="0.0" type="line"/>
      <point x="36.0" y="39.650000000000006" type="line"/>
      <point x="64.33333333333334" y="39.650000000000006" type="line" smooth="yes"/>
      <point x="239.516" y="39.650000000000006"/>
      <point x="367.745" y="198.7433333333333"/>
      <point x="339.7166666666667" y="408.9" type="curve" smooth="yes"/>
      <point x="254.28333333333333" y="1039.0" type="line" smooth="yes"/>
      <point x="210.62166666666664" y="1375.6080000000002"/>
      <point x="299.92600000000004" y="1488.45"/>
      <point x="512.45" y="1488.45" type="curve" smooth="yes"/>
      <point x="688.4143333333333" y="1488.45"/>
      <point x="773.5833333333333" y="1400.6946666666668"/>
      <point x="773.5833333333333" y="1158.3333333333333" type="curve" smooth="yes"/>
      <point x="773.5833333333333" y="1142.3333333333333" type="line"/>
      <point x="732.3666666666667" y="1142.3333333333333" type="line"/>
      <point x="732.3666666666667" y="1158.3333333333333" type="line" smooth="yes"/>
      <point x="745.9676666666667" y="1341.4666666666667"/>
      <point x="668.1926666666668" y="1421.7666666666667"/>
      <point x="514.45" y="1421.7666666666667" type="curve" smooth="yes"/>
      <point x="353.87333333333333" y="1421.7666666666667"/>
      <point x="284.95000000000005" y="1389.9236666666666"/>
      <point x="319.56666666666666" y="1039.0" type="curve" smooth="yes"/>
      <point x="383.01666666666665" y="422.23333333333335" type="line" smooth="yes"/>
      <point x="402.2903333333333" y="239.99333333333334"/>
      <point x="331.4166666666667" y="106.12333333333333"/>
      <point x="237.61666666666667" y="51.18333333333334" type="curve"/>
      <point x="796.8333333333333" y="51.18333333333334" type="line"/>
    </contour>
    <contour>
      <point x="677.1666666666666" y="842.45" type="line"/>
      <point x="94.16666666666666" y="842.45" type="line"/>
      <point x="94.16666666666666" y="873.7833333333333" type="line"/>
      <point x="677.1666666666666" y="873.7833333333333" type="line"/>
    </contour>
    <contour>
      <point x="677.1666666666666" y="468.45" type="line"/>
      <point x="94.16666666666666" y="468.45" type="line"/>
      <point x="94.16666666666666" y="499.78333333333336" type="line"/>
      <point x="677.1666666666666" y="499.78333333333336" type="line"/>
    </contour>
  </outline>
</glyph>
<glyph name="uni20B1" format="2">
  <advance width="981"/>
  <unicode hex="20B1"/>
  <outline>
    <contour>
      <point x="446.98333333333335" y="421.0" type="curve" smooth="yes"/>
      <point x="232.65" y="421.0" type="line"/>
      <point x="232.65" y="478.7833333333333" type="line"/>
      <point x="447.75" y="478.7833333333333" type="line" smooth="yes"/>
      <point x="704.1590000000001" y="478.7833333333333"/>
      <point x="796.75" y="726.2763333333332"/>
      <point x="796.75" y="958.8333333333334" type="curve" smooth="yes"/>
      <point x="796.75" y="1189.5366666666666"/>
      <point x="704.1590000000001" y="1398.2166666666667"/>
      <point x="447.75" y="1398.2166666666667" type="curve" smooth="yes"/>
      <point x="253.48333333333335" y="1398.2166666666667" type="line"/>
      <point x="253.48333333333335" y="0.0" type="line"/>
      <point x="201.05" y="0.0" type="line"/>
      <point x="201.05" y="1456.0" type="line"/>
      <point x="446.6" y="1456.0" type="line" smooth="yes"/>
      <point x="715.1583333333333" y="1456.0"/>
      <point x="851.3333333333334" y="1248.393"/>
      <point x="851.3333333333334" y="955.0" type="curve" smooth="yes"/>
      <point x="851.3333333333334" y="650.5073333333332"/>
      <point x="715.5416666666666" y="421.0"/>
    </contour>
    <contour>
      <point x="-1.0" y="1054.8166666666666" type="line"/>
      <point x="-1.0" y="1099.5333333333333" type="line"/>
      <point x="201.0" y="1099.5333333333333" type="line"/>
      <point x="201.0" y="1107.7333333333333" type="line"/>
      <point x="744.3333333333334" y="1107.7333333333333" type="line"/>
      <point x="744.3333333333334" y="1099.5333333333333" type="line"/>
      <point x="976.3333333333334" y="1101.5333333333333" type="line"/>
      <point x="976.3333333333334" y="1056.8166666666666" type="line"/>
      <point x="764.3333333333334" y="1054.8166666666666" type="line"/>
      <point x="764.3333333333334" y="1050.45" type="line"/>
      <point x="201.0" y="1050.45" type="line"/>
      <point x="201.0" y="1054.8166666666666" type="line"/>
    </contour>
    <contour>
      <point x="-1.0" y="798.65" type="line"/>
      <point x="-1.0" y="843.3666666666667" type="line"/>
      <point x="201.0" y="843.3666666666667" type="line"/>
      <point x="201.0" y="847.7333333333333" type="line"/>
      <point x="764.3333333333334" y="847.7333333333333" type="line"/>
      <point x="764.3333333333334" y="843.3666666666667" type="line"/>
      <point x="976.3333333333334" y="845.3666666666667" type="line"/>
      <point x="976.3333333333334" y="800.65" type="line"/>
      <point x="724.3333333333334" y="798.65" type="line"/>
      <point x="724.3333333333334" y="790.8333333333334" type="line"/>
      <point x="201.0" y="790.8333333333334" type="line"/>
      <point x="201.0" y="798.65" type="line"/>
    </contour>
  </outline>
</glyph>
<glyph name="liraTurkish" format="2">
  <advance width="1024"/>
  <unicode hex="20BA"/>
  <outline>
    <contour>
      <point x="60.53333333333333" y="468.2166666666667" type="line"/>
      <point x="60.53333333333333" y="522.55" type="line"/>
      <point x="679.3666666666667" y="794.2833333333333" type="line"/>
      <point x="673.3666666666667" y="740.95" type="line"/>
    </contour>
    <contour>
      <point x="207.66666666666666" y="0.0" type="line"/>
      <point x="207.66666666666666" y="1456.0" type="line"/>
      <point x="253.98333333333335" y="1456.0" type="line"/>
      <point x="253.98333333333335" y="51.900000000000006" type="line"/>
      <point x="423.78333333333336" y="51.900000000000006" type="line" smooth="yes"/>
      <point x="668.8023333333333" y="51.900000000000006"/>
      <point x="801.378" y="150.5123333333333"/>
      <point x="809.15" y="521.0" type="curve" smooth="yes"/>
      <point x="809.15" y="558.0" type="line"/>
      <point x="860.5" y="558.0" type="line"/>
      <point x="860.5" y="523.0" type="line" smooth="yes"/>
      <point x="860.5" y="177.19066666666663"/>
      <point x="740.3053333333335" y="-6.0200000000000005"/>
      <point x="402.0" y="-2.0" type="curve" smooth="yes"/>
    </contour>
    <contour>
      <point x="60.53333333333333" y="828.2166666666667" type="line"/>
      <point x="60.53333333333333" y="882.55" type="line"/>
      <point x="679.3666666666667" y="1154.2833333333333" type="line"/>
      <point x="673.3666666666667" y="1100.95" type="line"/>
    </contour>
  </outline>
</glyph>
<glyph name="breve.cyr" format="2">
  <advance width="983"/>
  <outline>
    <contour>
      <point x="491.48333333333335" y="1244.4833333333333" type="curve" smooth="yes"/>
      <point x="603.284" y="1244.4833333333333"/>
      <point x="687.5453333333332" y="1354.3766666666668"/>
      <point x="721.9833333333333" y="1489.7166666666667" type="curve"/>
      <point x="764.4666666666667" y="1468.5" type="line"/>
      <point x="748.0293333333334" y="1340.6416666666667"/>
      <point x="640.603" y="1196.6166666666666"/>
      <point x="491.48333333333335" y="1196.6166666666666" type="curve" smooth="yes"/>
      <point x="342.8773333333333" y="1196.6166666666666"/>
      <point x="234.93733333333336" y="1340.6416666666667"/>
      <point x="218.5" y="1468.5" type="curve"/>
      <point x="260.98333333333335" y="1489.7166666666667" type="line"/>
      <point x="295.42133333333334" y="1354.3766666666668"/>
      <point x="379.6826666666667" y="1244.4833333333333"/>
    </contour>
  </outline>
</glyph>
<glyph name="eight.prop" format="2">
  <advance width="1030"/>
  <outline>
    <contour>
      <point x="152.65" y="376.31666666666666" type="curve" smooth="yes"/>
      <point x="152.65" y="571.3313333333334"/>
      <point x="263.1576666666666" y="695.602"/>
      <point x="420.18333333333334" y="749.9166666666666" type="curve"/>
      <point x="420.18333333333334" y="753.9166666666666" type="line"/>
      <point x="275.173" y="799.566"/>
      <point x="192.25" y="931.7516666666667"/>
      <point x="192.25" y="1096.6833333333334" type="curve" smooth="yes"/>
      <point x="192.25" y="1332.3223333333333"/>
      <point x="323.84866666666665" y="1486.0"/>
      <point x="515.0666666666667" y="1486.0" type="curve" smooth="yes"/>
      <point x="706.2846666666667" y="1486.0"/>
      <point x="837.8833333333333" y="1332.3223333333333"/>
      <point x="837.8833333333333" y="1096.6833333333334" type="curve" smooth="yes"/>
      <point x="837.8833333333333" y="931.7516666666667"/>
      <point x="757.2383333333333" y="801.4196666666667"/>
      <point x="609.95" y="753.9166666666666" type="curve"/>
      <point x="609.95" y="749.9166666666666" type="line"/>
      <point x="776.2439999999999" y="706.7239999999999"/>
      <point x="877.4833333333333" y="574.6143333333333"/>
      <point x="877.4833333333333" y="376.31666666666666" type="curve" smooth="yes"/>
      <point x="877.4833333333333" y="116.55766666666665"/>
      <point x="728.7966666666667" y="-30.0"/>
      <point x="515.0666666666667" y="-30.0" type="curve" smooth="yes"/>
      <point x="301.33666666666664" y="-30.0"/>
      <point x="152.65" y="116.55766666666665"/>
    </contour>
    <contour>
      <point x="196.55" y="375.56666666666666" type="curve" smooth="yes"/>
      <point x="196.55" y="165.142"/>
      <point x="312.9946666666666" y="19.829666666666682"/>
      <point x="515.0666666666667" y="21.683333333333337" type="curve" smooth="yes"/>
      <point x="715.7093333333332" y="21.683333333333337"/>
      <point x="832.5166666666667" y="146.6053333333333"/>
      <point x="832.5166666666667" y="375.56666666666666" type="curve" smooth="yes"/>
      <point x="832.5166666666667" y="580.006"/>
      <point x="715.7093333333332" y="719.3166666666666"/>
      <point x="515.0666666666667" y="719.3166666666666" type="curve" smooth="yes"/>
      <point x="312.9946666666666" y="717.463"/>
      <point x="196.55" y="580.006"/>
    </contour>
    <contour>
      <point x="234.91666666666666" y="1097.4333333333334" type="curve" smooth="yes"/>
      <point x="234.91666666666666" y="906.394"/>
      <point x="337.3603333333333" y="772.537"/>
      <point x="515.0666666666667" y="770.6833333333334" type="curve" smooth="yes"/>
      <point x="691.3436666666666" y="770.6833333333334"/>
      <point x="795.2166666666667" y="906.394"/>
      <point x="795.2166666666667" y="1097.4333333333334" type="curve" smooth="yes"/>
      <point x="795.2166666666667" y="1295.8873333333333"/>
      <point x="691.3436666666666" y="1434.3166666666666"/>
      <point x="515.0666666666667" y="1434.3166666666666" type="curve" smooth="yes"/>
      <point x="337.3603333333333" y="1436.1703333333335"/>
      <point x="234.91666666666666" y="1295.8873333333333"/>
    </contour>
  </outline>
</glyph>
<glyph name="hard.bgr" format="2">
  <advance width="1026"/>
  <outline>
    <contour>
      <point x="271.2166666666667" y="319.18333333333334" type="curve" smooth="yes"/>
      <point x="271.2166666666667" y="992.7666666666667" type="line"/>
      <point x="57.666666666666664" y="992.7666666666667" type="line"/>
      <point x="57.666666666666664" y="1052.0" type="line"/>
      <point x="321.4166666666667" y="1052.0" type="line"/>
      <point x="321.4166666666667" y="668.2" type="line"/>
      <point x="553.9333333333334" y="668.2" type="line" smooth="yes"/>
      <point x="813.2903333333334" y="668.2"/>
      <point x="927.4833333333333" y="529.2953333333334"/>
      <point x="927.4833333333333" y="319.18333333333334" type="curve" smooth="yes"/>
      <point x="927.4833333333333" y="108.26733333333331"/>
      <point x="809.8896666666667" y="-30.0"/>
      <point x="604.2666666666667" y="-30.0" type="curve" smooth="yes"/>
      <point x="392.0553333333333" y="-30.0"/>
      <point x="271.2166666666667" y="108.26733333333331"/>
    </contour>
    <contour>
      <point x="321.4166666666667" y="319.18333333333334" type="line" smooth="yes"/>
      <point x="321.4166666666667" y="149.44999999999996"/>
      <point x="398.64366666666666" y="26.16666666666667"/>
      <point x="604.2666666666667" y="26.16666666666667" type="curve" smooth="yes"/>
      <point x="797.7403333333333" y="26.16666666666667"/>
      <point x="871.75" y="147.59633333333332"/>
      <point x="871.75" y="319.18333333333334" type="curve" smooth="yes"/>
      <point x="871.75" y="505.25423052963134"/>
      <point x="781.644" y="608.9666666666667"/>
      <point x="553.9333333333334" y="608.9666666666667" type="curve" smooth="yes"/>
      <point x="321.4166666666667" y="608.9666666666667" type="line"/>
    </contour>
  </outline>
</glyph>
<glyph name="hookabovecombstack.case" format="2">
  <advance width="1024"/>
  <outline>
    <contour>
      <point x="393.2" y="1554.0" type="line"/>
      <point x="393.2" y="1587.1666666666667" type="line" smooth="yes"/>
      <point x="393.2" y="1636.3446666666664"/>
      <point x="406.0966666666666" y="1646.9222483659987"/>
      <point x="532.95" y="1659.9666666666667" type="curve" smooth="yes"/>
      <point x="642.3325359476615" y="1673.054"/>
      <point x="676.7333333333333" y="1723.6733333333332"/>
      <point x="676.7333333333333" y="1790.45" type="curve" smooth="yes"/>
      <point x="676.7333333333333" y="1889.1589542483296"/>
      <point x="615.1500000000001" y="1924.3"/>
      <point x="512.4166666666666" y="1924.3" type="curve" smooth="yes"/>
      <point x="411.42533333333336" y="1924.3"/>
      <point x="332.4503333333333" y="1891.2613333333334"/>
      <point x="300.0" y="1874.4666666666667" type="curve"/>
      <point x="276.9" y="1911.85" type="line"/>
      <point x="320.29366666666664" y="1936.4836666666667"/>
      <point x="392.8163333333333" y="1966.6166666666666"/>
      <point x="512.3666666666667" y="1966.6166666666666" type="curve" smooth="yes"/>
      <point x="658.114" y="1966.6166666666666"/>
      <point x="740.8166666666667" y="1895.2083333333333"/>
      <point x="740.8166666666667" y="1791.9166666666667" type="curve" smooth="yes"/>
      <point x="740.8166666666667" y="1690.166"/>
      <point x="627.646" y="1619.1703333333332"/>
      <point x="450.9" y="1603.9166666666667" type="curve"/>
      <point x="450.9" y="1554.0" type="line"/>
    </contour>
  </outline>
</glyph>
<glyph name="horncomb.case" format="2">
  <advance width="1024"/>
  <outline>
    <contour>
      <point x="382.0" y="1413.5065359477667" type="line"/>
      <point x="455.0" y="1413.5065359477667" type="line" smooth="yes"/>
      <point x="596.8836666666666" y="1413.5065359477667"/>
      <point x="641.4166666666666" y="1429.6915359477669"/>
      <point x="641.4166666666666" y="1515.3398692811" type="curve" smooth="yes"/>
      <point x="641.4166666666666" y="1570.2798692811"/>
      <point x="633.4766666666666" y="1617.0998692811"/>
      <point x="621.4166666666666" y="1665.3398692811" type="curve"/>
      <point x="674.6369281046051" y="1665.3398692811" type="line"/>
      <point x="693.7095947712718" y="1621.9462026144333"/>
      <point x="715.9535947712717" y="1574.8332026144333"/>
      <point x="715.9535947712717" y="1495.7732026144333" type="curve" smooth="yes"/>
      <point x="715.9535947712717" y="1422.3412026144333"/>
      <point x="651.2253333333334" y="1367.2323529411683"/>
      <point x="530.0" y="1367.2323529411683" type="curve" smooth="yes"/>
      <point x="468.36" y="1367.2323529411683"/>
      <point x="416.84000000000003" y="1370.6244901960629"/>
      <point x="382.0" y="1379.8464052287281" type="curve"/>
    </contour>
  </outline>
</glyph>
<glyph name="jdotless" format="2">
  <advance width="364"/>
  <outline>
    <contour>
      <point x="-121.224" y="-415.644" type="curve"/>
      <point x="-121.224" y="-361.592" type="line"/>
      <point x="-97.83474666666665" y="-368.3715066666666"/>
      <point x="-51.83446000000001" y="-379.7106666666666"/>
      <point x="-17.973999999999997" y="-379.7106666666666" type="curve" smooth="yes"/>
      <point x="92.6036933333333" y="-379.7106666666666"/>
      <point x="157.0" y="-308.45988977783963"/>
      <point x="157.0" y="-130.0" type="curve" smooth="yes"/>
      <point x="157.0" y="1052.0" type="line"/>
      <point x="207.876" y="1052.0" type="line"/>
      <point x="207.876" y="-90.0" type="line" smooth="yes"/>
      <point x="207.876" y="-331.20000000000005"/>
      <point x="132.60670947369397" y="-436.0"/>
      <point x="-12.225333333333325" y="-436.0" type="curve" smooth="yes"/>
      <point x="-50.83442666667497" y="-436.0"/>
      <point x="-97.79403894155107" y="-424.0123455912288"/>
    </contour>
  </outline>
</glyph>
<glyph name="nine.prop" format="2">
  <advance width="1021"/>
  <outline>
    <contour>
      <point x="135.16666666666669" y="988.1666666666666" type="curve" smooth="yes"/>
      <point x="135.16666666666669" y="1285.0213333333334"/>
      <point x="272.25733333333335" y="1486.0"/>
      <point x="488.5333333333333" y="1486.0" type="curve" smooth="yes"/>
      <point x="730.3363333333334" y="1486.0"/>
      <point x="871.1666666666667" y="1256.8193333333334"/>
      <point x="871.1666666666667" y="842.0" type="curve" smooth="yes"/>
      <point x="871.1666666666667" y="812.0" type="line" smooth="yes"/>
      <point x="871.1666666666667" y="295.3853333333333"/>
      <point x="605.5526666666667" y="-30.0"/>
      <point x="326.9666666666667" y="-30.0" type="curve" smooth="yes"/>
      <point x="308.7833333333333" y="-30.0" type="line"/>
      <point x="308.7833333333333" y="21.683333333333337" type="line"/>
      <point x="326.9666666666667" y="21.683333333333337" type="line" smooth="yes"/>
      <point x="589.495" y="21.683333333333337"/>
      <point x="830.0333333333333" y="312.60966666666667"/>
      <point x="830.0333333333333" y="802.0" type="curve" smooth="yes"/>
      <point x="830.0333333333333" y="852.0" type="line" smooth="yes"/>
      <point x="830.0333333333333" y="1278.8346666666666"/>
      <point x="689.8683333333333" y="1434.3166666666666"/>
      <point x="488.5333333333333" y="1434.3166666666666" type="curve" smooth="yes"/>
      <point x="288.6276666666667" y="1434.3166666666666"/>
      <point x="179.36666666666667" y="1272.8720000000003"/>
      <point x="179.36666666666667" y="988.1666666666666" type="curve" smooth="yes"/>
      <point x="179.36666666666667" y="728.9883333333333"/>
      <point x="278.5293333333333" y="583.5"/>
      <point x="469.16666666666663" y="583.5" type="curve" smooth="yes"/>
      <point x="668.8043333333333" y="583.5"/>
      <point x="836.0333333333333" y="762.3543333333333"/>
      <point x="836.0333333333333" y="988.1666666666666" type="curve"/>
      <point x="862.4" y="988.1666666666666" type="line"/>
      <point x="862.4" y="722.4000000000001"/>
      <point x="683.1586666666667" y="531.8166666666667"/>
      <point x="472.6" y="531.8166666666667" type="curve" smooth="yes"/>
      <point x="253.37599999999998" y="531.8166666666667"/>
      <point x="135.16666666666669" y="714.9853333333333"/>
    </contour>
  </outline>
</glyph>
<glyph name="shcha.bgr" format="2">
  <advance width="1545"/>
  <outline>
    <contour>
      <point x="1400.6333333333334" y="1052.0" type="line"/>
      <point x="1400.6333333333334" y="59.233333333333334" type="line"/>
      <point x="1498.5333333333333" y="59.233333333333334" type="line"/>
      <point x="1498.5333333333333" y="-270.0" type="line"/>
      <point x="1441.2" y="-270.0" type="line"/>
      <point x="1441.2" y="0.0" type="line"/>
      <point x="1351.4" y="0.0" type="line"/>
      <point x="1351.3833333333332" y="160.5" type="line"/>
      <point x="1354.4333333333334" y="160.5" type="line"/>
      <point x="1269.5890000000002" y="39.14066666666666"/>
      <point x="1166.3326666666667" y="-20.0"/>
      <point x="1021.3" y="-20.0" type="curve" smooth="yes"/>
      <point x="888.7293333333333" y="-20.0"/>
      <point x="791.96" y="52.19933333333333"/>
      <point x="760.9166666666666" y="169.58333333333334" type="curve"/>
      <point x="765.35" y="169.58333333333334" type="line"/>
      <point x="694.3746666666666" y="55.21433333333333"/>
      <point x="568.3153333333335" y="-20.0"/>
      <point x="415.6" y="-20.0" type="curve" smooth="yes"/>
      <point x="252.70066666666668" y="-20.0"/>
      <point x="138.0" y="103.75566666666666"/>
      <point x="138.0" y="253.36666666666667" type="curve" smooth="yes"/>
      <point x="138.0" y="1052.0" type="line"/>
      <point x="187.88333333333333" y="1052.0" type="line"/>
      <point x="187.88333333333333" y="284.43333333333334" type="line" smooth="yes"/>
      <point x="191.59066666666666" y="109.00499999999997"/>
      <point x="282.4956666666667" y="35.21666666666667"/>
      <point x="438.58333333333337" y="35.21666666666667" type="curve" smooth="yes"/>
      <point x="590.0033333333333" y="35.21666666666667"/>
      <point x="689.412" y="126.66633333333336"/>
      <point x="742.8333333333334" y="218.3" type="curve"/>
      <point x="742.8333333333334" y="1052.0" type="line"/>
      <point x="795.4833333333333" y="1052.0" type="line"/>
      <point x="795.4833333333333" y="282.3" type="line" smooth="yes"/>
      <point x="799.1906666666666" y="109.7303333333333"/>
      <point x="900.5926666666667" y="35.21666666666667"/>
      <point x="1040.5333333333333" y="35.21666666666667" type="curve" smooth="yes"/>
      <point x="1175.8063333333334" y="35.21666666666667"/>
      <point x="1291.2946666666667" y="126.66633333333336"/>
      <point x="1350.4333333333334" y="218.3" type="curve"/>
      <point x="1350.4333333333334" y="1052.0" type="line"/>
    </contour>
  </outline>
</glyph>
